#!OML:ASF E:\Mandelcareful walks\Project 1\Capture day 1\Session 1\Subject1.ASF
:FULLY-SPECIFIED
:DEGREES
409
root -24.1927 14.5064 2.4465 163.036 71.3898 143.071
lowerback 35.3041 -4.10078 3.0191
upperback 8.19137 -3.25608 -3.49103
thorax -9.11947 -1.01288 -4.13169
lowerneck -28.6906 -4.01934 -8.87683
upperneck 6.99796 -1.62088 -0.854572
head 6.65818 -1.00488 0.878038
rclavicle 1.90833e-014 -1.59028e-015
rhumerus -9.75734 14.5544 -72.4602
rradius 56.0271
rwrist -22.394
rhand -13.2447 -29.7746
rfingers 7.12502
rthumb 12.8573 660.641
lclavicle 1.90833e-014 -1.59028e-015
lhumerus -11.0787 -24.5445 54.9084
lradius 61.4775
lwrist 14.709
lhand -30.2362 -29.3472
lfingers 7.12502
lthumb -3.54556 0.603067
rfemur -53.9818 -26.9 12.2857
rtibia 78.4546
rfoot -29.9914 -5.88497
rtoes -13.5192
lfemur -66.7426 11.2295 -20.4102
ltibia 51.9811
lfoot -11.1314 9.50883
ltoes -21.0306
410
root -24.1231 14.5826 2.34947 162.55 72.0462 142.525
lowerback 34.9095 -3.86955 2.75059
upperback 8.14492 -3.09165 -3.37482
thorax -8.99011 -0.949631 -3.93616
lowerneck -28.8563 -4.11553 -9.27296
upperneck 7.13449 -1.65395 -0.413585
head 6.73443 -0.996857 1.08062
rclavicle -2.14687e-014 1.98785e-015
rhumerus -9.74159 14.4378 -72.6899
rradius 56.0024
rwrist -22.7642
rhand -12.6686 -29.6576
rfingers 7.12502
rthumb 13.4126 660.794
lclavicle -2.14687e-014 1.98785e-015
lhumerus -11.8618 -24.0042 55.8496
lradius 62.5385
lwrist 14.7032
lhand -30.5458 -29.1714
lfingers 7.12502
lthumb -3.84457 0.773697
rfemur -53.1086 -26.189 11.9324
rtibia 77.3092
rfoot -29.6697 -5.98873
rtoes -13.5759
lfemur -65.7903 10.9094 -19.5781
ltibia 49.0497
lfoot -9.95345 10.1426
ltoes -21.7082
411
root -24.0647 14.6482 2.25029 162.14 72.3162 141.858
lowerback 34.366 -3.73414 2.47954
upperback 7.99615 -3.073 -3.32666
thorax -8.93545 -0.96166 -3.75657
lowerneck -28.732 -4.07633 -9.35825
upperneck 7.22291 -1.63774 -0.153558
head 6.74845 -0.97421 1.18449
rclavicle 4.53229e-014 1.90833e-014
rhumerus -9.76752 14.363 -73.086
rradius 55.865
rwrist -23.1188
rhand -13.3013 -28.5148
rfingers 7.12502
rthumb 12.8028 661.898
lclavicle 4.53229e-014 1.90833e-014
lhumerus -12.5648 -23.7494 56.6113
lradius 63.8147
lwrist 15.1419
lhand -31.2002 -29.2932
lfingers 7.12502
lthumb -4.47643 0.639457
rfemur -52.5186 -26.0593 11.5095
rtibia 76.0963
rfoot -29.0579 -6.10282
rtoes -14.38
lfemur -65.1359 10.28 -19.0697
ltibia 46.3708
lfoot -8.24993 10.9197
ltoes -22.4512
412
root -23.9221 14.7546 2.28998 157.537 75.5487 137.044
lowerback 33.3575 -1.32947 -0.909499
upperback 7.96354 -1.22101 -2.86929
thorax -8.32504 -0.100761 -2.16117
lowerneck -28.5152 -3.95637 -9.23082
upperneck 7.31223 -1.5708 -0.110747
head 6.74462 -0.942469 1.18998
rclavicle -1.74931e-014 3.18055e-015
rhumerus -9.79555 14.2959 -73.5841
rradius 55.8165
rwrist -23.4109
rhand -14.2402 -26.8874
rfingers 7.12502
rthumb 11.8975 663.471
lclavicle -1.74931e-014 3.18055e-015
lhumerus -13.1076 -23.603 57.208
lradius 65.1886
lwrist 15.9844
lhand -31.4353 -28.9882
lfingers 7.12502
lthumb -4.70343 0.939565
rfemur -51.8992 -22.1156 12.0103
rtibia 74.7734
rfoot -29.134 -7.11865
rtoes -15.3647
lfemur -63.6106 14.0681 -18.5001
ltibia 43.9554
lfoot -7.35544 10.2239
ltoes -23.5219
413
root -23.8573 14.8191 2.1431 156.879 76.0172 136.439
lowerback 33.0373 -1.37009 -0.636804
upperback 7.93659 -1.21111 -2.98652
thorax -8.24427 -0.107196 -2.43371
lowerneck -28.361 -3.91799 -9.23007
upperneck 7.29634 -1.56582 0.0128656
head 6.71786 -0.93022 1.23361
rclavicle -2.94201e-014 -4.17448e-014
rhumerus -9.63003 13.875 -74.0147
rradius 55.9575
rwrist -23.214
rhand -14.3454 -25.8093
rfingers 7.12502
rthumb 11.7961 664.543
lclavicle -2.94201e-014 -4.17448e-014
lhumerus -13.4161 -23.4606 57.7894
lradius 66.448
lwrist 16.7865
lhand -31.434 -29.15
lfingers 7.12502
lthumb -4.70217 0.777857
rfemur -50.9182 -22.341 11.6057
rtibia 73.62
rfoot -28.7865 -6.76182
rtoes -15.853
lfemur -62.4904 13.3631 -17.6893
ltibia 41.9027
lfoot -7.48066 9.83128
ltoes -21.7719
414
root -23.7981 14.8779 1.99066 156.792 76.4775 136.319
lowerback 32.6333 -1.44446 -0.277724
upperback 7.90528 -1.21679 -3.0717
thorax -8.13672 -0.123704 -2.71335
lowerneck -28.3716 -3.93005 -9.17965
upperneck 7.34867 -1.62577 0.150045
head 6.73988 -0.9483 1.26393
rclavicle 7.95139e-015 1.55052e-014
rhumerus -9.3065 13.3367 -74.4229
rradius 56.0843
rwrist -22.7728
rhand -14.0051 -25.0232
rfingers 7.12502
rthumb 12.1242 665.348
lclavicle 7.95139e-015 1.55052e-014
lhumerus -13.6588 -23.4134 58.3578
lradius 67.5488
lwrist 17.8431
lhand -31.107 -30.0718
lfingers 7.12502
lthumb -4.38649 -0.137227
rfemur -50.1085 -22.4714 11.314
rtibia 72.4315
rfoot -28.2768 -6.65024
rtoes -16.5069
lfemur -61.5989 12.6618 -16.8873
ltibia 40.2561
lfoot -8.09424 10.1729
ltoes -21.7488
415
root -23.7252 14.9337 1.83443 156.364 77.2255 135.886
lowerback 31.974 -1.36384 -0.181184
upperback 8.21469 -1.11455 -2.96999
thorax -8.21015 -0.114792 -2.89953
lowerneck -28.5733 -3.83067 -8.97478
upperneck 7.69445 -1.5475 0.126
head 6.88065 -0.922815 1.23229
rclavicle 5.96354e-015 3.06128e-014
rhumerus -8.91138 13.0451 -74.7313
rradius 56.3327
rwrist -22.6299
rhand -13.3214 -24.5533
rfingers 7.12502
rthumb 12.7834 665.858
lclavicle 5.96354e-015 3.06128e-014
lhumerus -14.0584 -23.0752 58.9733
lradius 68.8716
lwrist 18.1178
lhand -30.5114 -28.8228
lfingers 7.12502
lthumb -3.81127 1.12288
rfemur -49.2735 -22.1887 11.0377
rtibia 71.2622
rfoot -27.6449 -6.73365
rtoes -17.6907
lfemur -60.7234 12.2577 -16.0749
ltibia 39.1062
lfoot -8.43171 10.5693
ltoes -21.0949
416
root -23.6418 14.9818 1.66832 154.815 78.2668 134.3
lowerback 31.6103 -1.08987 -0.487378
upperback 8.09836 -0.892502 -2.89698
thorax -8.1556 -0.02431 -2.71712
lowerneck -28.8824 -3.69886 -8.93159
upperneck 8.02761 -1.37172 0.217737
head 7.03075 -0.842331 1.27791
rclavicle -2.34566e-014 -3.97569e-015
rhumerus -8.40109 12.9568 -74.9085
rradius 56.7475
rwrist -22.6196
rhand -12.2363 -24.8207
rfingers 7.12502
rthumb 13.8293 665.659
lclavicle -2.34566e-014 -3.97569e-015
lhumerus -14.4405 -22.6797 59.6655
lradius 69.9705
lwrist 18.6345
lhand -30.1396 -28.0096
lfingers 7.12502
lthumb -3.45231 1.9422
rfemur -48.4644 -21.5552 10.6129
rtibia 70.1455
rfoot -27.0794 -6.50571
rtoes -18.1988
lfemur -59.8683 12.1705 -15.38
ltibia 38.401
lfoot -8.77274 10.9166
ltoes -19.4517
417
root -23.5576 15.0135 1.49316 152.405 79.3813 131.861
lowerback 31.285 -0.768869 -0.962913
upperback 8.00468 -0.654171 -2.80541
thorax -8.09097 0.0778461 -2.4206
lowerneck -29.0998 -3.59612 -8.97311
upperneck 8.08342 -1.21673 0.343977
head 7.07483 -0.758855 1.34751
rclavicle -3.97569e-015 -2.0276e-014
rhumerus -7.83485 13.1216 -75.1032
rradius 57.0567
rwrist -22.3627
rhand -11.8663 -25.0596
rfingers 7.12502
rthumb 14.1858 665.445
lclavicle -3.97569e-015 -2.0276e-014
lhumerus -14.6186 -22.3658 60.2237
lradius 70.8413
lwrist 19.2555
lhand -30.0682 -28.0754
lfingers 7.12502
lthumb -3.38334 1.87747
rfemur -47.7272 -20.9555 10.1012
rtibia 69.1256
rfoot -26.6538 -5.84451
rtoes -18.0165
lfemur -59.0311 12.2261 -14.8551
ltibia 38.0539
lfoot -9.32821 10.9767
ltoes -19.041
418
root -23.471 15.034 1.3081 151.026 80.4984 130.449
lowerback 30.8896 -0.57229 -1.2529
upperback 7.86687 -0.510922 -2.6147
thorax -8.05135 0.129968 -2.08363
lowerneck -29.0607 -3.36826 -9.02336
upperneck 8.02304 -0.919168 0.425882
head 7.03625 -0.609029 1.4249
rclavicle 1.90833e-014 9.14409e-015
rhumerus -7.23383 13.5828 -75.3013
rradius 57.2087
rwrist -22.0122
rhand -12.3197 -24.6485
rfingers 7.12502
rthumb 13.7489 665.826
lclavicle 1.90833e-014 9.14409e-015
lhumerus -14.919 -21.8352 60.8048
lradius 71.8527
lwrist 19.0682
lhand -30.6236 -27.9132
lfingers 7.12502
lthumb -3.91969 2.03045
rfemur -47.0528 -20.4741 9.81721
rtibia 68.1616
rfoot -26.2448 -5.19891
rtoes -18.0378
lfemur -58.3482 12.2579 -14.2746
ltibia 37.9722
lfoot -9.96029 10.7218
ltoes -20.7057
419
root -23.3805 15.0547 1.11139 150.213 81.6225 129.568
lowerback 30.4754 -0.397308 -1.13227
upperback 7.73692 -0.286568 -2.62739
thorax -7.99862 0.217546 -2.24346
lowerneck -29.31 -3.15424 -8.70147
upperneck 8.21017 -0.759196 0.57333
head 7.1271 -0.515554 1.44736
rclavicle 1.82882e-014 5.96354e-016
rhumerus -7.065 13.1714 -75.8851
rradius 57.6505
rwrist -21.3591
rhand -12.5842 -23.8361
rfingers 7.12502
rthumb 13.494 666.621
lclavicle 1.82882e-014 5.96354e-016
lhumerus -14.6559 -21.8117 61.021
lradius 72.5366
lwrist 19.0504
lhand -31.1049 -28.2079
lfingers 7.12502
lthumb -4.38446 1.72668
rfemur -46.4229 -19.9709 9.61389
rtibia 67.2016
rfoot -25.7122 -4.80073
rtoes -18.7697
lfemur -57.7841 12.3247 -13.7471
ltibia 38.1102
lfoot -10.4769 10.1901
ltoes -21.4099
420
root -23.2922 15.077 0.902809 148.929 82.6054 128.279
lowerback 30.1235 -0.293094 -1.1674
upperback 7.61162 -0.187743 -2.56662
thorax -7.97036 0.249874 -2.18472
lowerneck -29.4206 -2.90752 -8.41649
upperneck 8.34623 -0.544577 0.628306
head 7.17891 -0.404811 1.45224
rclavicle 2.18663e-014 4.79071e-014
rhumerus -6.56533 12.9775 -76.1643
rradius 58.0749
rwrist -20.9167
rhand -12.2387 -23.5255
rfingers 7.12502
rthumb 13.827 666.954
lclavicle 2.18663e-014 4.79071e-014
lhumerus -14.4726 -21.4841 61.4017
lradius 73.1041
lwrist 18.9081
lhand -31.382 -28.1898
lfingers 7.12502
lthumb -4.652 1.73914
rfemur -45.6913 -19.5493 9.22229
rtibia 66.2321
rfoot -25.1202 -4.47574
rtoes -19.7051
lfemur -57.2442 12.2618 -13.301
ltibia 38.4838
lfoot -10.4467 9.52125
ltoes -22.4435
421
root -23.2101 15.0946 0.684772 147.3 83.6256 126.543
lowerback 29.4324 -0.165912 -1.26661
upperback 7.61519 -0.0535011 -2.44493
thorax -7.63127 0.302844 -2.02422
lowerneck -29.5253 -2.69522 -8.07345
upperneck 8.42162 -0.38896 0.631024
head 7.21187 -0.322723 1.42217
rclavicle -5.96354e-016 -2.40529e-014
rhumerus -5.93478 12.8368 -76.1985
rradius 58.7328
rwrist -20.5442
rhand -11.999 -23.4718
rfingers 7.12502
rthumb 14.0579 667.024
lclavicle -5.96354e-016 -2.40529e-014
lhumerus -14.2241 -20.993 61.8241
lradius 73.8147
lwrist 18.7715
lhand -31.7649 -28.3167
lfingers 7.12502
lthumb -5.02172 1.60381
rfemur -45.1439 -19.0562 8.84784
rtibia 65.2614
rfoot -24.5145 -4.18867
rtoes -20.5211
lfemur -57.2159 12.3015 -12.8707
ltibia 39.1322
lfoot -7.57641 9.27355
ltoes -17.2912
422
root -23.1251 15.1032 0.464145 144.7 84.6357 123.736
lowerback 28.8948 -0.0176428 -1.46432
upperback 7.52478 0.0659189 -2.35718
thorax -7.47121 0.347293 -1.84335
lowerneck -30.147 -2.50941 -7.70539
upperneck 8.8647 -0.25242 0.787792
head 7.44565 -0.243056 1.43861
rclavicle -1.64991e-014 -2.13694e-014
rhumerus -5.39275 12.7966 -76.3128
rradius 59.2357
rwrist -19.8692
rhand -13.3286 -22.1098
rfingers 7.12502
rthumb 12.7765 668.301
lclavicle -1.64991e-014 -2.13694e-014
lhumerus -13.8851 -20.5462 62.1688
lradius 74.4088
lwrist 18.7592
lhand -32.2642 -29.1997
lfingers 7.12502
lthumb -5.50387 0.708812
rfemur -44.7714 -18.4496 8.42588
rtibia 64.3405
rfoot -23.887 -4.04572
rtoes -21.5442
lfemur -57.6759 12.7474 -12.8182
ltibia 40.0809
lfoot -6.58119 9.17838
ltoes -20.4591
423
root -23.0256 15.1128 0.24437 142.334 85.2432 121.488
lowerback 28.7924 0.0248398 -1.75365
upperback 7.50686 0.0408783 -2.24914
thorax -7.44119 0.333625 -1.5451
lowerneck -30.7597 -2.37473 -7.48462
upperneck 9.23994 -0.155948 1.07941
head 7.65749 -0.16854 1.52021
rclavicle 1.18774e-014 9.24349e-015
rhumerus -4.93302 12.7128 -76.3099
rradius 59.7914
rwrist -19.3419
rhand -15.3559 -20.2725
rfingers 7.12502
rthumb 10.8215 670.026
lclavicle 1.18774e-014 9.24349e-015
lhumerus -13.2031 -20.1402 62.4901
lradius 74.7013
lwrist 18.7886
lhand -32.6337 -29.8277
lfingers 7.12502
lthumb -5.86055 0.0712079
rfemur -43.8029 -18.0533 7.65907
rtibia 63.4477
rfoot -23.3055 -3.95423
rtoes -22.2704
lfemur -57.9103 13.1756 -13.2211
ltibia 41.2819
lfoot -6.06355 8.34204
ltoes -22.172
